<svg width="33" height="32" viewBox="0 0 33 32" fill="none" xmlns="http://www.w3.org/2000/svg">
<path d="M32.6688 9.60006C32.6688 9.60006 32.3563 7.39381 31.3938 6.42506C30.175 5.15006 28.8125 5.1438 28.1875 5.0688C23.7125 4.7438 16.9938 4.7438 16.9938 4.7438H16.9813C16.9813 4.7438 10.2625 4.7438 5.7875 5.0688C5.1625 5.1438 3.8 5.15006 2.58125 6.42506C1.61875 7.39381 1.3125 9.60006 1.3125 9.60006C1.3125 9.60006 0.987503 12.1938 0.987503 14.7813V17.2063C0.987503 19.7938 1.30625 22.3876 1.30625 22.3876C1.30625 22.3876 1.61875 24.5938 2.575 25.5626C3.79375 26.8376 5.39375 26.7938 6.10625 26.9313C8.66875 27.1751 16.9875 27.2501 16.9875 27.2501C16.9875 27.2501 23.7125 27.2376 28.1875 26.9188C28.8125 26.8438 30.175 26.8376 31.3938 25.5626C32.3563 24.5938 32.6688 22.3876 32.6688 22.3876C32.6688 22.3876 32.9875 19.8001 32.9875 17.2063V14.7813C32.9875 12.1938 32.6688 9.60006 32.6688 9.60006ZM13.6813 20.1501V11.1563L22.325 15.6688L13.6813 20.1501Z" fill="#676767"/>
</svg>
